<svg width="198" height="198" viewBox="0 0 198 198" fill="none" xmlns="http://www.w3.org/2000/svg">
<g clip-path="url(#clip0_45_356)">
<rect width="198" height="198" rx="48" fill="#EAFF00"/>
<path d="M77.6402 -10.8792L212.636 48.0018C213.784 55.0867 214.359 61.4056 214.359 66.9586C214.359 90.128 207.274 110.425 193.104 127.85C178.935 145.084 160.074 159.349 136.521 170.647C168.499 177.923 192.53 190.561 208.614 208.56C224.89 226.56 233.028 245.899 233.028 266.579C233.028 288.6 224.029 308.418 206.029 326.035C182.86 349.013 140.064 369.214 77.6402 386.639L-37.5368 297.6L3.82353 256.527L131.926 355.045C142.649 345.47 150.499 335.13 155.478 324.024C160.648 312.727 163.233 298.94 163.233 282.664C163.233 251.452 154.233 226.655 136.234 208.273C118.426 189.699 94.4907 180.412 64.4278 180.412C54.8537 180.412 44.5136 181.274 33.4076 182.997V162.03H39.1521C72.4701 162.03 98.3203 153.03 116.703 135.031C135.085 117.031 144.276 92.3301 144.276 60.9269C144.276 48.289 142.266 39.4808 138.244 34.5023C134.415 29.3322 129.915 26.7472 124.745 26.7472C119.383 26.7472 112.873 29.7152 105.214 35.6512L100.618 39.0979L22.2059 95.1066L-15.7077 56.3313L77.6402 -10.8792Z" fill="#1F3300"/>
</g>
<defs>
<clipPath id="clip0_45_356">
<rect width="198" height="198" rx="48" fill="white"/>
</clipPath>
</defs>
</svg>
